# xmcd CD database file
#
# Track frame offsets:
#	150
#	23861
#	40216
#	55875
#	88001
#	110180
#	132150
#	149912
#	173526
#	193894
#	214345
#	239659
#
# Disc length: 3585 seconds
#
# Revision: 8
# Processed by: cddbd v1.5PL3 Copyright (c) Steve Scherf et al.
# Submitted via: CDex 1.51
#
DISCID=bc0dff0c
DTITLE=GLAY - DRIVE GLAY complete BEST  Disc1
DYEAR=2000
DGENRE=Rock
TTITLE0=とまどい (Jet the Phantom)
TTITLE1=口唇
TTITLE2=SHUTTER SPEEDSのテーマ
TTITLE3=ずっと２人で・・・
TTITLE4=グロリアス
TTITLE5=a Boy 〜ずっと忘れない〜
TTITLE6=生きてく強さ
TTITLE7=HAPPY SWING
TTITLE8=彼女の ”Modern・・・"
TTITLE9=SOUL LOVE
TTITLE10=HOWEVER
TTITLE11=I'm in Love
EXTD=YEAR: 2000
EXTT0=
EXTT1=
EXTT2=
EXTT3=
EXTT4=
EXTT5=
EXTT6=
EXTT7=
EXTT8=
EXTT9=
EXTT10=
EXTT11=
PLAYORDER=
